<?xml version="1.0" encoding="utf-8"?>
<!-- Generator: Adobe Illustrator 23.0.6, SVG Export Plug-In . SVG Version: 6.00 Build 0)  -->
<svg version="1.1" id="Layer_1" xmlns="http://www.w3.org/2000/svg" xmlns:xlink="http://www.w3.org/1999/xlink" x="0px" y="0px"
	 viewBox="0 0 433 150" style="enable-background:new 0 0 433 150;" xml:space="preserve">
<style type="text/css">
	.st0{fill:none;stroke:#763727;stroke-width:5;stroke-miterlimit:10;}
	.st1{fill:#763727;}
	.st2{font-family:'MyriadPro-Semibold';}
	.st3{font-size:65.0544px;}
</style>
<path class="st0" d="M55.27,15.64c-6.93,0-12.68,4.75-14.33,11.18c-0.19,0-0.32-0.05-0.51-0.05c-8.19,0-14.84,6.66-14.84,14.84
	c0,1.11,0.14,2.2,0.39,3.25c-6.77,2.78-11.52,9.41-11.52,17.16c0,2.92,0.74,5.63,1.92,8.09c-5.57,3.2-9.35,9.14-9.35,16.02
	c0,7.72,4.73,14.35,11.46,17.14c-0.21,1.07-0.32,2.16-0.32,3.27c0,9.23,7.47,16.7,16.7,16.7c0.95,0,1.88-0.12,2.78-0.28
	c2.23,6.61,8.39,11.41,15.77,11.41c9.23,0,16.7-7.47,16.7-16.7V30.48C70.11,22.29,63.46,15.64,55.27,15.64z M140.61,86.13
	c0-6.89-3.78-12.82-9.35-16.02c1.21-2.46,1.92-5.17,1.92-8.09c0-7.75-4.75-14.38-11.52-17.16c0.23-1.04,0.39-2.13,0.39-3.25
	c0-8.19-6.66-14.84-14.84-14.84c-0.19,0-0.35,0.05-0.51,0.05c-1.65-6.42-7.4-11.18-14.33-11.18c-8.19,0-14.84,6.63-14.84,14.84
	v87.19c0,9.23,7.47,16.7,16.7,16.7c7.37,0,13.54-4.8,15.77-11.41c0.9,0.16,1.83,0.28,2.78,0.28c9.23,0,16.7-7.47,16.7-16.7
	c0-1.11-0.12-2.2-0.32-3.27C135.88,100.48,140.61,93.85,140.61,86.13z"/>
<text transform="matrix(0.4637 0 0 1 149.6609 100.4014)" class="st1 st2 st3">Knowledge On Going</text>
</svg>
